<svg xmlns="http://www.w3.org/2000/svg" viewBox="0 0 748.5 700.16"><defs><style>.cls-1{fill:#fff;}.cls-1,.cls-3{stroke:#515151;stroke-width:11px;}.cls-1,.cls-3,.cls-5{stroke-miterlimit:10;}.cls-2{fill:#d0dce2;}.cls-3,.cls-5{fill:none;}.cls-4{fill:#2d2d2d;}.cls-5{stroke:#a3b0b7;stroke-width:6px;}.cls-6{fill:#f9f335;}.cls-7{fill:#515151;}</style></defs><title>Asset 5</title><g id="Layer_2" data-name="Layer 2"><g id="Layer_3" data-name="Layer 3"><polygon class="cls-1" points="686.75 367.25 743 367.25 743 479.75 718 479.75 686.75 367.25"/><polygon class="cls-1" points="61.75 367.25 5.5 367.25 5.5 479.75 30.5 479.75 61.75 367.25"/><line class="cls-1" x1="374.25" y1="179.75" x2="374.25" y2="61"/><path class="cls-1" d="M717.32,504.07C717.32,314.6,563.72,161,374.25,161S31.18,314.6,31.18,504.07V694.66H717.32Z"/><path class="cls-2" d="M374.25,161c-7.24,0-14.41.25-21.53.69,179.44,11.12,321.53,160.14,321.53,342.38V694.66h43.07V504.07C717.32,314.6,563.72,161,374.25,161Z"/><path class="cls-3" d="M717.32,504.07C717.32,314.6,563.72,161,374.25,161S31.18,314.6,31.18,504.07V694.66H717.32Z"/><circle class="cls-4" cx="374.25" cy="442.25" r="50"/><circle class="cls-5" cx="374.25" cy="442.25" r="81.25"/><path class="cls-6" d="M374.25,116.5A55.5,55.5,0,1,1,429.75,61,55.56,55.56,0,0,1,374.25,116.5Z"/><path class="cls-7" d="M374.25,11a50,50,0,1,1-50,50,50,50,0,0,1,50-50m0-11a61,61,0,1,0,61,61,61.07,61.07,0,0,0-61-61Z"/></g></g></svg>