<svg xmlns="http://www.w3.org/2000/svg" viewBox="0 0 611 842.25"><defs><style>.cls-1{fill:#fff;}.cls-1,.cls-3,.cls-4,.cls-5,.cls-7{stroke:#424242;stroke-miterlimit:10;stroke-width:11px;}.cls-2{fill:#ccc;}.cls-3{fill:none;}.cls-4,.cls-6{fill:#f4d3c3;}.cls-5{fill:#f7ded2;}.cls-7{fill:#e2d8a1;}.cls-8{fill:#cec393;}</style></defs><title>Asset 6</title><g id="Layer_2" data-name="Layer 2"><g id="Layer_4" data-name="Layer 4"><path class="cls-1" d="M67.5,649.25h476a12,12,0,0,1,12,12v175.5a0,0,0,0,1,0,0H55.5a0,0,0,0,1,0,0V661.25A12,12,0,0,1,67.5,649.25Z"/><path class="cls-2" d="M539.28,649.25H505.5c8.92,0,16.22,5.4,16.22,12v175.5H555.5V661.25C555.5,654.65,548.2,649.25,539.28,649.25Z"/><path class="cls-3" d="M67.5,649.25h476a12,12,0,0,1,12,12v175.5a0,0,0,0,1,0,0H55.5a0,0,0,0,1,0,0V661.25A12,12,0,0,1,67.5,649.25Z"/><rect class="cls-4" x="218" y="599.25" width="175" height="50"/><path class="cls-5" d="M605.5,305.5c0,165.69-134.31,312.5-300,312.5S5.5,471.19,5.5,305.5s134.31-300,300-300S605.5,139.81,605.5,305.5Z"/><path class="cls-6" d="M305.5,5.5q-7.86,0-15.62.4C448.3,14,574.25,145.06,574.25,305.5s-126,303.19-284.37,312.06q7.76.43,15.63.44c165.69,0,300-146.81,300-312.5S471.19,5.5,305.5,5.5Z"/><path class="cls-3" d="M605.5,305.5c0,165.69-134.31,312.5-300,312.5S5.5,471.19,5.5,305.5s134.31-300,300-300S605.5,139.81,605.5,305.5Z"/><path class="cls-7" d="M605.5,305.5c0-165.69-134.31-300-300-300s-300,134.31-300,300l106.25,81.25L305.5,343l193.75,43.75Z"/><path class="cls-8" d="M305.5,5.5c-4.19,0-8.35.11-12.5.28C452.89,12.33,580.5,144,580.5,305.5L479.95,382.39l19.3,4.36L605.5,305.5C605.5,139.81,471.19,5.5,305.5,5.5Z"/><path class="cls-3" d="M605.5,305.5c0-165.69-134.31-300-300-300s-300,134.31-300,300l106.25,81.25L305.5,343l193.75,43.75Z"/></g></g></svg>